<svg width="150" height="50" viewBox="0 0 150 50" fill="none" xmlns="http://www.w3.org/2000/svg">
<rect x="0.949219" width="50.2348" height="50" rx="9.37716" fill="#9EFF00"/>
<path d="M10.104 15.5938L26.0665 25.0002V42.9579L10.104 33.8365L10.104 15.5938Z" fill="#1A1A1A"/>
<path fill-rule="evenodd" clip-rule="evenodd" d="M27.4749 24.9877V40.531L40.6205 33.0192V17.2412L27.4749 24.9877ZM42.0289 33.8366L26.0665 42.958V25.0002L10.104 15.5938L26.0665 7.04248L42.0289 15.5938V33.8366ZM39.882 16.0415L26.0665 8.64031L12.9775 15.6523L26.76 23.7741L39.882 16.0415Z" fill="#1A1A1A"/>
<path d="M64.7882 16.6665C67.3139 16.6665 69.2268 18.0408 69.7097 20.2508L67.1839 20.7708C66.9982 19.6008 65.9768 18.8394 64.7325 18.8394C63.4697 18.8394 62.7082 19.5451 62.7082 20.3808C62.7082 21.0122 62.9868 21.4579 63.9525 21.6436L66.6268 22.1822C68.6511 22.6094 69.8954 23.8165 69.8954 25.7479C69.8954 28.1622 67.9082 29.6665 64.9554 29.6665C62.3554 29.6665 60.0711 28.4594 59.7554 25.9708L62.4111 25.4322C62.7454 26.8436 63.7854 27.4565 65.1968 27.4565C66.6454 27.4565 67.4068 26.7694 67.4068 25.8779C67.4068 25.1722 67.0725 24.7451 65.9582 24.5222L63.3211 24.0208C61.8354 23.7051 60.0525 22.8879 60.0525 20.4551C60.0525 18.2265 61.8725 16.6665 64.7882 16.6665Z" fill="white"/>
<path d="M81.4398 20.1208V32.5451H78.9884V28.6636C78.2084 29.2951 77.187 29.6665 75.9241 29.6665C73.5655 29.6665 71.3741 27.6794 71.3741 24.7636C71.3741 21.8479 73.5655 19.8422 75.9241 19.8422C77.187 19.8422 78.2084 20.2136 78.9884 20.8636V20.1208H81.4398ZM76.3513 27.5308C77.6698 27.5308 78.9884 26.4722 78.9884 24.7636C78.9884 23.0551 77.6698 21.9779 76.3513 21.9779C74.8656 21.9779 73.7513 23.0551 73.7513 24.7636C73.7513 26.4722 74.8656 27.5308 76.3513 27.5308Z" fill="white"/>
<path d="M92.7818 20.1208V29.3879H90.3303V28.5522C89.606 29.2765 88.6403 29.6665 87.4146 29.6665C85.186 29.6665 83.7003 28.0694 83.7003 25.7665V20.1208H86.1518V25.2465C86.1518 26.5465 86.8946 27.4194 88.0275 27.4194C89.4203 27.4194 90.3303 26.4908 90.3303 24.2251V20.1208H92.7818Z" fill="white"/>
<path d="M104.709 20.1208V29.3879H102.257V28.6636C101.477 29.2951 100.456 29.6665 99.1928 29.6665C96.8342 29.6665 94.6428 27.6794 94.6428 24.7636C94.6428 21.8479 96.8342 19.8422 99.1928 19.8422C100.456 19.8422 101.477 20.2136 102.257 20.8636V20.1208H104.709ZM99.62 27.5308C100.939 27.5308 102.257 26.4722 102.257 24.7636C102.257 23.0551 100.939 21.9779 99.62 21.9779C98.1342 21.9779 97.02 23.0551 97.02 24.7636C97.02 26.4722 98.1342 27.5308 99.62 27.5308Z" fill="white"/>
<path d="M113.077 19.9908C113.318 19.9908 113.504 19.9908 113.727 20.0651L113.597 22.4236H113.058C110.793 22.4236 109.753 23.8165 109.753 26.3979V29.3879H107.301V20.1208H109.753V21.8108C110.495 20.7336 111.573 19.9908 113.077 19.9908Z" fill="white"/>
<path d="M123.919 24.5779V25.4136H116.862C117.104 26.7508 118.051 27.5679 119.184 27.5679C119.908 27.5679 120.818 27.4751 121.487 26.3422L123.678 26.8065C122.861 28.7379 121.208 29.6665 119.184 29.6665C116.565 29.6665 114.429 27.6794 114.429 24.7636C114.429 21.8479 116.565 19.8422 119.221 19.8422C121.691 19.8422 123.827 21.7551 123.919 24.5779ZM119.221 21.9779C118.292 21.9779 117.234 22.5351 116.937 23.6865H121.412C121.097 22.4979 120.205 21.9779 119.221 21.9779Z" fill="white"/>
<path d="M136.498 16.9451V23.8165C136.498 27.3079 134.362 29.6665 131.149 29.6665C127.862 29.6665 125.67 27.3079 125.67 23.8165V16.9451H128.196V23.8165C128.196 25.8965 129.366 27.2522 131.149 27.2522C132.839 27.2522 133.972 25.8965 133.972 23.8165V16.9451H136.498Z" fill="white"/>
<path d="M144.501 19.8422C146.859 19.8422 149.051 21.8479 149.051 24.7636C149.051 27.6794 146.859 29.6665 144.501 29.6665C143.238 29.6665 142.216 29.2951 141.436 28.6636V32.5451H138.985V20.1208H141.436V20.8636C142.216 20.2136 143.238 19.8422 144.501 19.8422ZM144.074 27.5308C145.559 27.5308 146.674 26.4722 146.674 24.7636C146.674 23.0551 145.559 21.9779 144.074 21.9779C142.755 21.9779 141.436 23.0551 141.436 24.7636C141.436 26.4722 142.755 27.5308 144.074 27.5308Z" fill="white"/>
</svg>
