<svg width="64" height="64" viewBox="0 0 64 64" fill="none" xmlns="http://www.w3.org/2000/svg">
<rect x="0.5" y="0.5" width="63" height="63" rx="7.5" fill="url(#paint0_linear_39_214)"/>
<rect x="0.5" y="0.5" width="63" height="63" rx="7.5" stroke="url(#paint1_linear_39_214)"/>
<path d="M27.5502 41.7502C36.6045 41.7502 41.5583 34.2469 41.5583 27.7421C41.5583 27.5312 41.5536 27.3155 41.5442 27.1046C42.5079 26.4077 43.3395 25.5445 44 24.5555C43.1025 24.9548 42.1496 25.2156 41.1739 25.329C42.2013 24.7132 42.9705 23.7457 43.3391 22.606C42.3726 23.1788 41.3156 23.5829 40.2134 23.8009C39.4708 23.0118 38.489 22.4894 37.4197 22.3143C36.3504 22.1392 35.2532 22.3213 34.2977 22.8323C33.3423 23.3434 32.5818 24.1549 32.1338 25.1416C31.6859 26.1282 31.5754 27.2349 31.8195 28.2905C29.8625 28.1923 27.9479 27.6839 26.2 26.7983C24.452 25.9127 22.9097 24.6697 21.673 23.1498C21.0444 24.2335 20.8521 25.5159 21.135 26.7363C21.418 27.9568 22.1551 29.0237 23.1964 29.7202C22.4146 29.6954 21.65 29.4849 20.9656 29.1062V29.1671C20.9649 30.3044 21.3581 31.4068 22.0783 32.287C22.7985 33.1672 23.8013 33.7708 24.9162 33.9952C24.1921 34.1934 23.432 34.2222 22.6948 34.0796C23.0095 35.0577 23.6216 35.9131 24.4458 36.5266C25.27 37.14 26.2651 37.4808 27.2923 37.5015C25.5484 38.8714 23.3942 39.6144 21.1766 39.6109C20.7833 39.6103 20.3904 39.5861 20 39.5387C22.2529 40.984 24.8735 41.7516 27.5502 41.7502Z" fill="#9EFF00"/>
<defs>
<linearGradient id="paint0_linear_39_214" x1="32" y1="0" x2="32" y2="64" gradientUnits="userSpaceOnUse">
<stop stop-color="#242424"/>
<stop offset="1" stop-color="#242424" stop-opacity="0"/>
</linearGradient>
<linearGradient id="paint1_linear_39_214" x1="32" y1="0" x2="32" y2="64" gradientUnits="userSpaceOnUse">
<stop stop-color="#2E2E2E"/>
<stop offset="1" stop-color="#2E2E2E" stop-opacity="0"/>
</linearGradient>
</defs>
</svg>
